# xmcd
#
# Track frame offsets:
#	150
#	15560
#	31608
#	47114
#	62032
#	75433
#	90280
#	107034
#	121221
#	137103
#	151888
#
# Disc length: 2226 seconds
#
# Revision: 2
# Processed by: cddbd v1.5.2PL0 Copyright (c) Steve Scherf et al.
# Submitted via: audiograbber 1.83.01
#
DISCID=7708b00b
DTITLE=Wade Hayes - Place to Turn Around
DYEAR=2009
DGENRE=Country
TTITLE0=Good Day to Go Crazy
TTITLE1=The Best Part
TTITLE2=God Made Me (To Love You)
TTITLE3=What's a Broken Heart (For You)
TTITLE4=Right Where I Want You
TTITLE5=I Want To
TTITLE6=She Knows Me
TTITLE7=Every Time I Give the Devil a Ride
TTITLE8=I Wouldn't Know
TTITLE9=Place to Turn Around
TTITLE10=Drinkin' Thing
EXTD=
EXTT0=
EXTT1=
EXTT2=
EXTT3=
EXTT4=
EXTT5=
EXTT6=
EXTT7=
EXTT8=
EXTT9=
EXTT10=
PLAYORDER=
